Coordinates
version=1
nRows=6
nColumns=38
inDegrees=yes

Units are S.I. units (second, meters, Newtons, ...)
Angles are in degrees.

endheader
time	pelvis_tilt	pelvis_list	pelvis_rotation	pelvis_tx	pelvis_ty	pelvis_tz	hip_flexion_r	hip_adduction_r	hip_rotation_r	knee_angle_r	ankle_angle_r	subtalar_angle_r	mtp_angle_r	hip_flexion_l	hip_adduction_l	hip_rotation_l	knee_angle_l	ankle_angle_l	subtalar_angle_l	mtp_angle_l	lumbar_extension	lumbar_bending	lumbar_rotation	arm_flex_r	arm_add_r	arm_rot_r	elbow_flex_r	pro_sup_r	wrist_flex_r	wrist_dev_r	arm_flex_l	arm_add_l	arm_rot_l	elbow_flex_l	pro_sup_l	wrist_flex_l	wrist_dev_l
      2.12000000	      1.71925475	     -1.37988255	      0.12783638	      0.33018975	      0.92236962	     -0.19574501	     -5.35238553	      6.60316855	     -5.11717764	    -12.81834791	     10.37418079	      0.66336635	      1.18804348	     25.43785053	      0.49374478	      2.72172238	    -42.12226077	     -0.45046841	     -7.37580962	     10.98857022	     -8.00205952	      3.99431926	      2.26170451	      5.90044851	    -22.13573517	     17.23643223	     29.29618596	     86.51662706	      0.00000000	      0.00000000	     -2.90063884	    -12.81321155	     29.16512165	     10.45243605	     86.51662706	      0.00000000	      0.00000000
      2.13000000	      1.91112366	     -1.39697271	     -0.01219681	      0.34234606	      0.92105501	     -0.19489882	     -6.76660375	      6.64858223	     -5.30210795	    -12.16165586	     10.82148728	      1.24198577	      1.17104899	     25.53149472	      0.43102256	      2.55497668	    -38.67273724	     -0.29462315	     -8.86595938	      9.95742031	     -8.33439533	      3.96687337	      2.61267360	      6.52113150	    -22.47732667	     17.43806944	     30.13809175	     86.51662706	      0.00000000	      0.00000000	     -3.36717214	    -12.80385888	     28.55591608	     10.36279958	     86.51662706	      0.00000000	      0.00000000
      2.14000000	      2.09276176	     -1.44851298	     -0.13429414	      0.35461574	      0.91954532	     -0.19414230	     -8.13075951	      6.72843423	     -5.52536144	    -11.58413690	     11.24859238	      1.80788331	      1.18797641	     25.56320568	      0.34245879	      2.41534208	    -35.13165419	     -0.09163172	    -10.11821206	      9.09896312	     -8.64626425	      3.98238312	      2.92472695	      7.12727513	    -22.80552434	     17.61667718	     30.93800100	     86.51662706	      0.00000000	      0.00000000	     -3.83839907	    -12.77174179	     27.94937073	     10.27389899	     86.51662706	      0.00000000	      0.00000000
      2.15000000	      2.25096220	     -1.53126783	     -0.24471927	      0.36700013	      0.91786872	     -0.19347532	     -9.42941114	      6.83956376	     -5.75188065	    -11.09442113	     11.65140967	      2.33718816	      1.24152351	     25.55909647	      0.22646042	      2.28813449	    -31.55573017	      0.18368985	    -10.99873193	      8.43344488	     -8.92400857	      4.03775794	      3.20577542	      7.70982185	    -23.11915277	     17.76089319	     31.69550583	     86.51662706	      0.00000000	      0.00000000	     -4.30714885	    -12.71320173	     27.36592921	     10.17318003	     86.51662706	      0.00000000	      0.00000000
      2.16000000	      2.37314173	     -1.64344706	     -0.34930342	      0.37948861	      0.91602451	     -0.19289368	    -10.65020391	      6.97632837	     -5.94913372	    -10.69724642	     12.02710959	      2.81563311	      1.33291509	     25.54476952	      0.08170929	      2.15553107	    -28.01208708	      0.53921096	    -11.39499104	      7.96757529	     -9.15581778	      4.13037389	      3.46368034	      8.26000109	    -23.41835497	     17.86088783	     32.41229224	     86.51662706	      0.00000000	      0.00000000	     -4.76416094	    -12.62662134	     26.82473878	     10.04854361	     86.51662706	      0.00000000	      0.00000000
      2.17000000	      2.45005138	     -1.78393745	     -0.45238376	      0.39205754	      0.91400248	     -0.19238546	    -11.78321864	      7.13109709	     -6.09218465	    -10.39669500	     12.37319168	      3.24012380	      1.46209189	     25.54517057	     -0.09070151	      1.99651898	    -24.57827460	      0.96676161	    -11.23369480	      7.69458663	     -9.33333021	      4.25798995	      3.70535624	      8.76954448	    -23.70428070	     17.90898890	     33.09161709	     86.51662706	      0.00000000	      0.00000000	     -5.19876176	    -12.51215636	     26.34347252	      9.88910544	     86.51662706	      0.00000000	      0.00000000
